<?xml version="1.0" encoding="UTF-8"?>
<svg id="Layer_1" data-name="Layer 1" xmlns="http://www.w3.org/2000/svg" viewBox="0 0 626.03 371.64">
  <path fill="#cc785c" d="M536,0l-14.75,57.76-.05,4.5,94.22,120.81c23.94,28.57,4.99,74.6-32.9,74.99-24.24.25-30.53-20.59-47.19-32.91s-29.59-13.79-47.86-20.14c-16.91-5.88-31.01-16.12-40.97-31.02-20.18,20.16-34.18,45.3-50.69,68.3-78.71,109.67-176.62,181.72-301.29,81.66-27.13-21.78-54.17-53.6-92.52-49.97-.15-5.5.16-11.04.04-16.55s-3.25-6.9,5.48-6.51c75.03,3.34,121.61,72.43,207.24,45.32,112.63-35.66,132.89-195.01,241.18-215.82,17.24-3.31,33.87-2.84,51.05.54l-11.01-14.5,9-35.48c-1.62-1.6-16.08,8.52-18.33,10.16-2.43,1.79-10.96,10.21-12.37,10.63-4.55,1.35-19.86.52-26.67,1.33-87.34,10.4-118.91,87.24-167.23,147.77-40.5,50.73-81.2,83.37-145.69,43.9-14.93-9.14-27.93-21.28-43.83-29.17-25.68-12.74-55.71-13.03-82.3-2.7-1.49-.38-7.72-17.92-8.58-20.91,29-11.16,59.88-12.48,89.25-1.76,46.59,17.01,79.86,74.55,134.07,36.56,18.34-12.85,32.04-31.76,46.08-48.92l18.59-26.9c-16.53,9.36-35.92,16.63-54.78,19.71-43.72,7.15-82.43-6.65-118.16-30.79-.86-1.24,11.34-19.1,13.26-18.79.82.13,11.62,7.73,14.01,9.05,50.14,27.63,91.63,25.9,141.16-2.18,57.07-32.35,78.91-81.99,149.99-95.02,1.64-.3,1.73.66,1.52-1.96-6.66-.69-12.99-3.04-19.63-3.88-81.87-10.29-113.87,62.71-185.01,72.74-20,2.82-38.46-.58-57.37-6.87-.74-.82,6.96-19.91,7.99-20.56,2-1.26,9.23,2.45,12,3.07,66.61,15.01,97.53-38.92,151.74-60.27,43-16.94,87.27-14.96,127.77,7.7,2.21,0,9.95-6.5,12.83-8.1C500.78,6.2,518.04-.1,536,0ZM533.66,115.34c-115.29-59.97-160.03,70.15-219.15,136.67-38.8,43.66-91.69,79.1-153,71.97l-39.51-7.49c42.46,34.43,94.71,42.99,144.67,18.68,75.18-36.57,101.01-103.33,150.35-162.65,4.44-5.34,26.18-28.68,31.52-29.55,11.27-1.84,11.18,7.89,14.93,15.04,14.52,27.64,43.53,26.22,68.56,38.44,7.95,3.88,17.45,10.05,23.98,16.02,11.37,10.41,20.56,32.78,39.01,18.04,16.5-13.19,5.81-28.68-3.63-41.42-18.55-25.03-39.15-48.75-57.74-73.76Z"/>
</svg>